<?xml version="1.0" encoding="UTF-8"?>
<svg version="1.1" xmlns="http://www.w3.org/2000/svg" xmlns:xlink="http://www.w3.org/1999/xlink" viewBox="0 0 512 512">
<path style="fill:#fb4633;" d="M441.835,441.831c-6.818,6.818-10.692,15.386-11.921,24.26l-102.4-102.4l36.181-36.181l102.4,102.4 C457.229,431.139,448.653,435.013,441.835,441.831z"/>
<circle style="fill:#fb4633;" cx="460.805" cy="460.801" r="42.641"/>
<rect x="368.942" y="377.436" transform="matrix(0.7071 -0.7071 0.7071 0.7071 -163.3943 394.5188)" style="fill:#fb4633;" width="51.174" height="34.116"/>
<g>
  <polygon style="fill:#dedfe2;" points="273.072,212.762 80.901,20.592 8.538,8.534 20.604,80.897 212.767,273.067	"/>
  <rect x="260.153" y="260.763" transform="matrix(-0.7071 0.7071 -0.7071 -0.7071 731.0114 302.8003)" style="fill:#dedfe2;" width="85.281" height="84.07"/>
</g>
<path style="fill:#fb4633;" d="M70.175,441.831c6.818,6.818,10.692,15.386,11.921,24.26l102.4-102.4l-36.181-36.181l-102.4,102.4 C54.78,431.139,63.356,435.013,70.175,441.831z"/>
<circle style="fill:#fb4633;" cx="51.179" cy="460.801" r="42.641"/>
<polygon style="fill:#f2f2f2;" points="205.095,367.216 144.781,306.911 431.109,20.592 503.472,8.534 491.414,80.897 "/>
<rect x="91.933" y="377.433" transform="matrix(-0.7071 -0.7071 0.7071 -0.7071 -78.3281 756.5378)" style="fill:#fb4633;" width="51.174" height="34.116"/>
<g>
  <polygon style="fill:#fb4633;" points="316.097,400.521 400.525,316.092 400.525,279.911 364.344,279.911 279.915,364.331 279.915,400.521 	"/>
  <polygon style="fill:#fb4633;" points="195.913,400.521 111.484,316.092 111.484,279.911 147.666,279.911 232.095,364.331 232.095,400.521 	"/>
</g>
<g>
  <path style="fill:#4b505c;" d="M232.095,409.046h-36.181c-2.261,0-4.437-0.896-6.033-2.5l-84.429-84.429
    c-1.604-1.604-2.5-3.763-2.5-6.033v-36.181c0-4.719,3.823-8.533,8.533-8.533h36.181c2.261,0,4.437,0.896,6.033,2.5l84.429,84.429
    c1.604,1.604,2.5,3.763,2.5,6.033v36.181C240.628,405.232,236.805,409.046,232.095,409.046z M199.446,391.979h24.115v-24.115
    l-79.428-79.428h-24.115v24.115L199.446,391.979z"/>
  <path style="fill:#4b505c;" d="M51.179,512.001c-13.67,0-26.522-5.325-36.19-14.993c-9.66-9.668-14.985-22.519-14.985-36.181
    c0-13.662,5.325-26.513,14.993-36.181c9.668-9.668,22.511-14.993,36.181-14.993s26.522,5.325,36.19,14.993
    c9.668,9.668,14.985,22.519,14.985,36.181c0,13.662-5.325,26.513-14.985,36.181l0,0C77.701,506.676,64.85,512.001,51.179,512.001z
     M51.179,426.719c-9.114,0-17.673,3.55-24.115,9.993c-6.443,6.434-9.993,15.002-9.993,24.115c0,9.114,3.55,17.673,9.993,24.115
    c6.443,6.443,15.002,9.993,24.115,9.993s17.681-3.55,24.115-9.993l0,0c6.443-6.443,9.993-15.01,9.993-24.115
    s-3.55-17.673-9.993-24.115C68.86,430.268,60.293,426.719,51.179,426.719z"/>
  <path style="fill:#4b505c;" d="M220.037,360.807c-2.261,0-4.437-0.896-6.033-2.5l-60.305-60.305c-3.337-3.337-3.337-8.73,0-12.066
    L425.076,14.559c1.254-1.254,2.876-2.091,4.634-2.381L502.072,0.12c2.705-0.452,5.487,0.435,7.433,2.381
    c1.954,1.954,2.842,4.719,2.381,7.433l-12.058,72.363c-0.29,1.758-1.126,3.379-2.381,4.634L226.07,358.307
    C224.466,359.911,222.298,360.807,220.037,360.807z M171.798,291.969l48.239,48.239L483.444,76.801l9.643-57.882l-57.882,9.643
    L171.798,291.969z"/>
  <path style="fill:#4b505c;" d="M189.88,330.659c-2.185,0-4.369-0.836-6.033-2.5c-3.337-3.337-3.337-8.73,0-12.066l211.191-211.191
    c3.328-3.337,8.73-3.337,12.066,0c3.337,3.337,3.337,8.73,0,12.066L195.913,328.159
    C194.249,329.823,192.065,330.659,189.88,330.659z"/>
  <path style="fill:#4b505c;" d="M426.672,93.867c-2.185,0-4.369-0.836-6.033-2.5c-3.337-3.337-3.337-8.73,0-12.066l25.6-25.6
    c3.328-3.337,8.738-3.337,12.066,0c3.337,3.337,3.337,8.73,0,12.066l-25.6,25.6C431.041,93.031,428.856,93.867,426.672,93.867z"/>
  <path style="fill:#4b505c;" d="M123.551,433.178c-2.261,0-4.437-0.896-6.033-2.5l-36.181-36.181c-3.337-3.337-3.337-8.73,0-12.066
    l24.124-24.124c3.2-3.2,8.866-3.2,12.066,0l36.181,36.181c3.337,3.337,3.337,8.73,0,12.066l-24.124,24.124
    C127.979,432.274,125.812,433.178,123.551,433.178z M99.435,388.455l24.115,24.115l12.058-12.058l-24.115-24.115L99.435,388.455z"
    />
  <path style="fill:#4b505c;" d="M93.257,463.463c-0.905,0-1.826-0.145-2.714-0.444c-3.072-1.033-5.291-3.712-5.734-6.921
    c-1.05-7.518-4.335-14.225-9.506-19.396l0,0c-5.171-5.171-11.878-8.457-19.396-9.506c-3.209-0.444-5.888-2.662-6.912-5.734
    c-1.033-3.072-0.23-6.46,2.057-8.747l78.532-78.532c3.328-3.337,8.73-3.337,12.066,0l36.181,36.181
    c1.604,1.604,2.5,3.763,2.5,6.033c0,2.27-0.896,4.437-2.5,6.033l-78.532,78.532C97.669,462.593,95.484,463.463,93.257,463.463z
     M87.369,424.645c4.147,4.139,7.484,8.926,9.941,14.165l62.413-62.404l-24.115-24.115l-62.413,62.404
    C78.443,417.153,83.222,420.489,87.369,424.645L87.369,424.645L87.369,424.645L87.369,424.645L87.369,424.645z"/>
  <path style="fill:#4b505c;" d="M57.212,475.393c-2.185,0-4.369-0.836-6.033-2.5l-12.058-12.066c-3.328-3.337-3.328-8.73,0-12.066
    c3.337-3.345,8.738-3.328,12.066,0l12.058,12.066c3.328,3.337,3.328,8.73,0,12.066C61.581,474.556,59.397,475.393,57.212,475.393z"
    />
  <path style="fill:#4b505c;" d="M316.097,409.046h-36.181c-4.71,0-8.533-3.814-8.533-8.533v-36.181c0-2.27,0.896-4.437,2.5-6.033
    l84.429-84.429c1.604-1.604,3.772-2.5,6.033-2.5h36.181c4.71,0,8.533,3.814,8.533,8.533v36.181c0,2.27-0.896,4.437-2.5,6.033
    l-84.429,84.429C320.534,408.15,318.358,409.046,316.097,409.046z M288.449,391.979h24.115l79.428-79.428v-24.115h-24.115
    l-79.428,79.428L288.449,391.979L288.449,391.979z"/>
  <path style="fill:#4b505c;" d="M460.831,512.001c-13.67,0-26.522-5.325-36.19-14.993c-9.668-9.668-14.985-22.519-14.985-36.181
    c0-13.662,5.325-26.513,14.993-36.181c9.668-9.668,22.519-14.993,36.19-14.993s26.522,5.325,36.19,14.993
    c9.651,9.66,14.976,22.511,14.976,36.181s-5.325,26.513-14.993,36.181C487.352,506.676,474.501,512.001,460.831,512.001z
     M460.831,426.719c-9.114,0-17.681,3.55-24.115,9.993c-6.443,6.443-9.993,15.01-9.993,24.115s3.55,17.673,9.993,24.115l0,0
    c6.434,6.443,15.002,9.993,24.115,9.993c9.114,0,17.673-3.55,24.115-9.993c6.443-6.443,9.993-15.01,9.993-24.115
    s-3.55-17.673-9.993-24.115S469.944,426.719,460.831,426.719z"/>
  <path style="fill:#4b505c;" d="M225.857,234.386c-2.185,0-4.369-0.836-6.033-2.5L104.905,116.967c-3.337-3.337-3.337-8.73,0-12.066
    c3.328-3.337,8.73-3.337,12.066,0L231.89,219.819c3.337,3.337,3.337,8.73,0,12.066C230.226,233.55,228.033,234.386,225.857,234.386
    z"/>
  <path style="fill:#4b505c;" d="M85.338,93.867c-2.185,0-4.369-0.836-6.033-2.5l-25.6-25.6c-3.337-3.337-3.337-8.73,0-12.066
    c3.328-3.337,8.738-3.337,12.066,0l25.6,25.6c3.337,3.337,3.337,8.73,0,12.066C89.707,93.031,87.523,93.867,85.338,93.867z"/>
  <path style="fill:#4b505c;" d="M388.459,433.178L388.459,433.178c-2.261,0-4.437-0.896-6.033-2.5l-24.124-24.124
    c-3.337-3.337-3.337-8.73,0-12.066l36.181-36.181c1.604-1.604,3.772-2.5,6.033-2.5l0,0c2.261,0,4.437,0.896,6.033,2.5
    l24.124,24.124c3.337,3.337,3.337,8.73,0,12.066l-36.181,36.181C392.897,432.274,390.729,433.178,388.459,433.178z M376.41,400.513
    l12.058,12.058l24.115-24.115l-12.058-12.058L376.41,400.513z"/>
  <path style="fill:#4b505c;" d="M418.753,463.463c-2.227,0-4.412-0.879-6.033-2.5l-78.532-78.532c-1.604-1.604-2.5-3.763-2.5-6.033
    c0-2.27,0.896-4.437,2.5-6.033l36.181-36.181c3.328-3.337,8.73-3.337,12.066,0l78.532,78.532c2.287,2.295,3.089,5.675,2.057,8.747
    c-1.033,3.063-3.712,5.291-6.912,5.734c-7.526,1.05-14.234,4.335-19.396,9.506l0,0c-5.171,5.171-8.457,11.887-9.506,19.396
    c-0.444,3.209-2.671,5.879-5.734,6.921C420.579,463.327,419.657,463.463,418.753,463.463z M352.287,376.398l62.413,62.404
    c2.458-5.239,5.794-10.027,9.941-14.165l0,0l0,0l0,0c4.147-4.147,8.917-7.492,14.165-9.95l-62.413-62.404L352.287,376.398z
     M430.674,430.678h0.085H430.674z"/>
  <path style="fill:#4b505c;" d="M454.797,475.393c-2.185,0-4.369-0.836-6.033-2.5c-3.337-3.337-3.337-8.73,0-12.066l12.058-12.066
    c3.337-3.328,8.738-3.345,12.066,0c3.337,3.337,3.337,8.73,0,12.066l-12.058,12.066
    C459.167,474.556,456.982,475.393,454.797,475.393z"/>
  <path style="fill:#4b505c;" d="M195.7,264.534c-2.261,0-4.437-0.896-6.033-2.5L14.563,86.93c-1.254-1.254-2.091-2.876-2.381-4.634
    L0.116,9.934C-0.336,7.22,0.551,4.447,2.505,2.501s4.727-2.79,7.433-2.381L82.3,12.178c1.758,0.29,3.379,1.126,4.634,2.381
    l175.104,175.104c3.337,3.337,3.337,8.73,0,12.066l-60.305,60.305C200.137,263.63,197.961,264.534,195.7,264.534z M28.566,76.801
    L195.7,243.935l48.239-48.239L76.805,28.562l-57.882-9.643L28.566,76.801z"/>
  <path style="fill:#4b505c;" d="M291.973,360.807c-2.185,0-4.369-0.836-6.033-2.5l-35.968-35.968c-1.604-1.596-2.5-3.763-2.5-6.033
    c0-2.27,0.896-4.437,2.5-6.033l60.305-60.305c3.328-3.337,8.73-3.337,12.066,0l35.968,35.968c1.604,1.604,2.5,3.763,2.5,6.033
    c0,2.27-0.896,4.437-2.5,6.033l-60.305,60.305C296.342,359.971,294.157,360.807,291.973,360.807z M268.071,316.306l23.902,23.902
    l48.239-48.239l-23.902-23.902L268.071,316.306z"/>
</g>
</svg>
