<?xml version="1.0" encoding="UTF-8"?>
<svg xmlns="http://www.w3.org/2000/svg" version="1.1" viewBox="170 267 175 175">
  <path style="fill:#f2f2f2;" d="M307.243,430.933H204.757c-9.404,0-17.024-7.62-17.024-17.024V294.357 c0-9.404,7.62-17.024,17.024-17.024h102.477c9.412,0,17.033,7.62,17.033,17.024v119.543 C324.267,423.313,316.646,430.933,307.243,430.933z" />
   <path style="fill:#4b505c;" d="M307.243,439.467H204.757c-14.089,0-25.557-11.469-25.557-25.557V294.357 c0-14.089,11.469-25.557,25.557-25.557h102.485c14.089,0,25.557,11.469,25.557,25.557v119.552 C332.8,427.998,321.331,439.467,307.243,439.467z M204.757,285.867c-4.676,0-8.491,3.806-8.491,8.491v119.552 c0,4.685,3.814,8.491,8.491,8.491h102.485c4.685,0,8.491-3.806,8.491-8.491V294.357c0-4.685-3.806-8.491-8.491-8.491H204.757z" />
  <path style="fill:#fb4633;" d="M256,396.8c-4.71,0-8.533-3.823-8.533-8.533V320c0-4.71,3.823-8.533,8.533-8.533 c4.71,0,8.533,3.823,8.533,8.533v68.267C264.533,392.977,260.71,396.8,256,396.8z" />
  <path style="fill:#fb4633;" d="M256,396.8c-2.185,0-4.369-0.836-6.033-2.5l-25.6-25.6c-3.337-3.337-3.337-8.73,0-12.066 c3.328-3.337,8.738-3.337,12.066,0l25.6,25.6c3.337,3.337,3.337,8.73,0,12.066C260.369,395.964,258.185,396.8,256,396.8z" />
  <path style="fill:#fb4633;" d="M256,396.8c-2.185,0-4.369-0.836-6.033-2.5c-3.337-3.337-3.337-8.73,0-12.066l25.6-25.6 c3.337-3.337,8.73-3.337,12.066,0s3.337,8.73,0,12.066l-25.6,25.6C260.369,395.964,258.185,396.8,256,396.8z" />
</svg>
