<?xml version="1.0" encoding="UTF-8"?>
<svg xmlns="http://www.w3.org/2000/svg" version="1.1" viewBox="169 70 175 175">
  <path style="fill:#f2f2f2;" d="M307.243,234.667H204.757c-9.404,0-17.024-7.62-17.024-17.024V98.091 c0-9.404,7.62-17.024,17.024-17.024h102.477c9.412,0,17.033,7.62,17.033,17.024v119.543 C324.267,227.046,316.646,234.667,307.243,234.667z" />
  <path style="fill:#4b505c;" d="M307.243,243.2H204.757c-14.089,0-25.557-11.469-25.557-25.557V98.091 c0-14.089,11.469-25.557,25.557-25.557h102.485c14.089,0,25.557,11.469,25.557,25.557v119.552 C332.8,231.731,321.331,243.2,307.243,243.2z M204.757,89.6c-4.676,0-8.491,3.806-8.491,8.491v119.552 c0,4.685,3.814,8.491,8.491,8.491h102.485c4.685,0,8.491-3.806,8.491-8.491V98.091c0-4.685-3.806-8.491-8.491-8.491H204.757z" />
  <path style="fill:#fb4633;" d="M256,200.533c-4.71,0-8.533-3.823-8.533-8.533v-68.267c0-4.71,3.823-8.533,8.533-8.533 c4.71,0,8.533,3.823,8.533,8.533V192C264.533,196.71,260.71,200.533,256,200.533z" />
  <path style="fill:#fb4633;" d="M281.6,157.867c-2.185,0-4.369-0.836-6.033-2.5l-25.6-25.6c-3.337-3.337-3.337-8.73,0-12.066 c3.328-3.337,8.738-3.337,12.066,0l25.6,25.6c3.337,3.337,3.337,8.73,0,12.066C285.969,157.03,283.785,157.867,281.6,157.867z" />
  <path style="fill:#fb4633;" d="M230.4,157.867c-2.185,0-4.369-0.836-6.033-2.5c-3.337-3.337-3.337-8.73,0-12.066l25.6-25.6 c3.328-3.337,8.738-3.337,12.066,0c3.337,3.337,3.337,8.73,0,12.066l-25.6,25.6C234.769,157.03,232.585,157.867,230.4,157.867z" />
</svg>
